<svg
			xmlns="http://www.w3.org/2000/svg"
			width="40"
			height="40"
		>
			<g transform="translate(0 0.816)">
				<path
					d="M 0 0 L 39.682 0 L 39.682 39.682 L 0 39.682 Z"
					fill="transparent"
				></path>
				<path
					d="M 18.802 10.984 C 18.41 7.638 17.998 4.103 17.998 0 L 21.683 0 C 21.683 4.057 21.272 7.587 20.883 10.939 C 20.565 13.669 20.261 16.281 20.204 18.963 C 22.054 17.033 23.673 14.986 25.368 12.842 C 27.458 10.201 29.667 7.411 32.568 4.508 L 35.174 7.113 C 32.304 9.984 29.518 12.188 26.872 14.281 L 26.87 14.284 C 24.715 15.989 22.655 17.621 20.718 19.476 C 23.391 19.42 25.982 19.117 28.697 18.802 C 32.044 18.41 35.577 17.998 39.682 17.998 L 39.682 21.683 C 35.624 21.683 32.095 21.272 28.743 20.883 C 26.011 20.565 23.401 20.261 20.718 20.204 C 22.647 22.054 24.692 23.67 26.834 25.365 L 26.838 25.368 C 29.481 27.458 32.271 29.665 35.174 32.568 L 32.568 35.174 C 29.698 32.304 27.494 29.518 25.401 26.873 L 25.394 26.867 L 25.391 26.86 C 23.688 24.71 22.057 22.651 20.204 20.718 C 20.261 23.401 20.563 26.013 20.883 28.744 C 21.273 32.095 21.683 35.624 21.683 39.682 L 17.998 39.682 C 17.998 35.577 18.411 32.044 18.802 28.697 L 18.802 28.692 C 19.118 25.979 19.422 23.389 19.478 20.718 C 17.623 22.651 15.993 24.71 14.291 26.86 L 14.286 26.867 L 14.281 26.873 C 12.188 29.518 9.984 32.304 7.113 35.174 L 4.508 32.568 C 7.411 29.665 10.201 27.458 12.844 25.368 L 12.847 25.365 C 14.989 23.67 17.035 22.054 18.963 20.206 C 16.281 20.261 13.669 20.565 10.937 20.883 C 7.587 21.272 4.057 21.683 -0 21.683 L -0 17.998 C 4.103 17.998 7.638 18.411 10.984 18.802 C 13.7 19.118 16.291 19.422 18.963 19.478 C 17.025 17.62 14.963 15.989 12.808 14.282 C 10.163 12.188 7.378 9.984 4.508 7.115 L 7.113 4.506 C 10.015 7.409 12.224 10.199 14.313 12.841 C 16.008 14.984 17.628 17.032 19.478 18.962 C 19.42 16.291 19.118 13.701 18.802 10.988 L 18.802 10.983 Z"
					fill="rgb(33,33,35)"
				></path>
			</g>
		</svg>